solid ascii.stl
facet normal -0.0 0.0 1.0
outer loop
vertex -44.70000076293945 23.600000381469727 50.0
vertex -44.70000076293945 -26.399999618530273 50.0
vertex 5.300000190734863 23.600000381469727 50.0
endloop
endfacet
facet normal -0.0 0.0 1.0
outer loop
vertex 5.300000190734863 23.600000381469727 50.0
vertex -44.70000076293945 -26.399999618530273 50.0
vertex 5.300000190734863 -26.399999618530273 50.0
endloop
endfacet
facet normal 0.0 0.0 -1.0
outer loop
vertex -44.70000076293945 -26.399999618530273 0.0
vertex -44.70000076293945 23.600000381469727 0.0
vertex 5.300000190734863 -26.399999618530273 0.0
endloop
endfacet
facet normal 0.0 0.0 -1.0
outer loop
vertex 5.300000190734863 -26.399999618530273 0.0
vertex -44.70000076293945 23.600000381469727 0.0
vertex 5.300000190734863 23.600000381469727 0.0
endloop
endfacet
facet normal -0.0 -1.0 -0.0
outer loop
vertex 5.300000190734863 -26.399999618530273 50.0
vertex -44.70000076293945 -26.399999618530273 50.0
vertex 5.300000190734863 -26.399999618530273 0.0
endloop
endfacet
facet normal -0.0 -1.0 -0.0
outer loop
vertex 5.300000190734863 -26.399999618530273 0.0
vertex -44.70000076293945 -26.399999618530273 50.0
vertex -44.70000076293945 -26.399999618530273 0.0
endloop
endfacet
facet normal -1.0 0.0 -0.0
outer loop
vertex -44.70000076293945 -26.399999618530273 50.0
vertex -44.70000076293945 23.600000381469727 50.0
vertex -44.70000076293945 -26.399999618530273 0.0
endloop
endfacet
facet normal -1.0 0.0 0.0
outer loop
vertex -44.70000076293945 -26.399999618530273 0.0
vertex -44.70000076293945 23.600000381469727 50.0
vertex -44.70000076293945 23.600000381469727 0.0
endloop
endfacet
facet normal -0.0 1.0 0.0
outer loop
vertex -44.70000076293945 23.600000381469727 50.0
vertex 5.300000190734863 23.600000381469727 50.0
vertex -44.70000076293945 23.600000381469727 0.0
endloop
endfacet
facet normal -0.0 1.0 0.0
outer loop
vertex -44.70000076293945 23.600000381469727 0.0
vertex 5.300000190734863 23.600000381469727 50.0
vertex 5.300000190734863 23.600000381469727 0.0
endloop
endfacet
facet normal 1.0 0.0 0.0
outer loop
vertex 5.300000190734863 23.600000381469727 50.0
vertex 5.300000190734863 -26.399999618530273 50.0
vertex 5.300000190734863 23.600000381469727 0.0
endloop
endfacet
facet normal 1.0 0.0 0.0
outer loop
vertex 5.300000190734863 23.600000381469727 0.0
vertex 5.300000190734863 -26.399999618530273 50.0
vertex 5.300000190734863 -26.399999618530273 0.0
endloop
endfacet
endsolid ascii.stl
