solid test2.stl
facet normal -0.0 -1.0 -0.0
outer loop
vertex -4.562730312347412 3.393663167953491 24.706411361694336
vertex -29.269140243530273 3.393663167953491 24.706411361694336
vertex -4.562730312347412 3.393663167953491 0.0
endloop
endfacet
facet normal -0.0 1.0 0.0
outer loop
vertex -24.097942352294922 8.564861297607422 0.0
vertex -9.733928680419922 8.564861297607422 24.706411361694336
vertex -9.733928680419922 8.564861297607422 0.0
endloop
endfacet
facet normal -0.0 1.0 0.0
outer loop
vertex -24.097942352294922 8.564861297607422 24.706411361694336
vertex -9.733928680419922 8.564861297607422 24.706411361694336
vertex -24.097942352294922 8.564861297607422 0.0
endloop
endfacet
facet normal 1.0 0.0 0.0
outer loop
vertex -24.097942352294922 22.928874969482422 0.0
vertex -24.097942352294922 8.564861297607422 24.706411361694336
vertex -24.097942352294922 8.564861297607422 0.0
endloop
endfacet
facet normal 1.0 0.0 0.0
outer loop
vertex -24.097942352294922 22.928874969482422 24.706411361694336
vertex -24.097942352294922 8.564861297607422 24.706411361694336
vertex -24.097942352294922 22.928874969482422 0.0
endloop
endfacet
facet normal -0.0 -1.0 -0.0
outer loop
vertex -9.733928680419922 22.928874969482422 0.0
vertex -24.097942352294922 22.928874969482422 24.706411361694336
vertex -24.097942352294922 22.928874969482422 0.0
endloop
endfacet
facet normal -0.0 -1.0 -0.0
outer loop
vertex -9.733928680419922 22.928874969482422 24.706411361694336
vertex -24.097942352294922 22.928874969482422 24.706411361694336
vertex -9.733928680419922 22.928874969482422 0.0
endloop
endfacet
facet normal -1.0 0.0 0.0
outer loop
vertex -9.733928680419922 8.564861297607422 0.0
vertex -9.733928680419922 22.928874969482422 24.706411361694336
vertex -9.733928680419922 22.928874969482422 0.0
endloop
endfacet
facet normal -1.0 0.0 -0.0
outer loop
vertex -9.733928680419922 8.564861297607422 24.706411361694336
vertex -9.733928680419922 22.928874969482422 24.706411361694336
vertex -9.733928680419922 8.564861297607422 0.0
endloop
endfacet
facet normal 1.0 0.0 0.0
outer loop
vertex -4.562730312347412 28.100074768066406 0.0
vertex -4.562730312347412 3.393663167953491 24.706411361694336
vertex -4.562730312347412 3.393663167953491 0.0
endloop
endfacet
facet normal 1.0 0.0 0.0
outer loop
vertex -4.562730312347412 28.100074768066406 24.706411361694336
vertex -4.562730312347412 3.393663167953491 24.706411361694336
vertex -4.562730312347412 28.100074768066406 0.0
endloop
endfacet
facet normal -0.0 1.0 0.0
outer loop
vertex -29.269140243530273 28.100074768066406 0.0
vertex -4.562730312347412 28.100074768066406 24.706411361694336
vertex -4.562730312347412 28.100074768066406 0.0
endloop
endfacet
facet normal -0.0 1.0 0.0
outer loop
vertex -29.269140243530273 28.100074768066406 24.706411361694336
vertex -4.562730312347412 28.100074768066406 24.706411361694336
vertex -29.269140243530273 28.100074768066406 0.0
endloop
endfacet
facet normal -1.0 0.0 0.0
outer loop
vertex -29.269140243530273 3.393663167953491 0.0
vertex -29.269140243530273 28.100074768066406 24.706411361694336
vertex -29.269140243530273 28.100074768066406 0.0
endloop
endfacet
facet normal -1.0 0.0 -0.0
outer loop
vertex -29.269140243530273 3.393663167953491 24.706411361694336
vertex -29.269140243530273 28.100074768066406 24.706411361694336
vertex -29.269140243530273 3.393663167953491 0.0
endloop
endfacet
facet normal -0.0 -1.0 -0.0
outer loop
vertex -4.562730312347412 3.393663167953491 0.0
vertex -29.269140243530273 3.393663167953491 24.706411361694336
vertex -29.269140243530273 3.393663167953491 0.0
endloop
endfacet
facet normal 0.0 0.0 1.0
outer loop
vertex -4.562730312347412 28.100074768066406 24.706411361694336
vertex -29.269140243530273 28.100074768066406 24.706411361694336
vertex -9.733928680419922 22.928874969482422 24.706411361694336
endloop
endfacet
facet normal 0.0 0.0 -1.0
outer loop
vertex -24.097942352294922 8.564861297607422 0.0
vertex -29.269140243530273 28.100074768066406 0.0
vertex -24.097942352294922 22.928874969482422 0.0
endloop
endfacet
facet normal 0.0 0.0 -1.0
outer loop
vertex -29.269140243530273 3.393663167953491 0.0
vertex -29.269140243530273 28.100074768066406 0.0
vertex -24.097942352294922 8.564861297607422 0.0
endloop
endfacet
facet normal -0.0 0.0 -1.0
outer loop
vertex -9.733928680419922 8.564861297607422 0.0
vertex -29.269140243530273 3.393663167953491 0.0
vertex -24.097942352294922 8.564861297607422 0.0
endloop
endfacet
facet normal 0.0 0.0 -1.0
outer loop
vertex -4.562730312347412 3.393663167953491 0.0
vertex -29.269140243530273 3.393663167953491 0.0
vertex -9.733928680419922 8.564861297607422 0.0
endloop
endfacet
facet normal -0.0 -0.0 -1.0
outer loop
vertex -9.733928680419922 22.928874969482422 0.0
vertex -4.562730312347412 3.393663167953491 0.0
vertex -9.733928680419922 8.564861297607422 0.0
endloop
endfacet
facet normal -0.0 -0.0 -1.0
outer loop
vertex -4.562730312347412 28.100074768066406 0.0
vertex -4.562730312347412 3.393663167953491 0.0
vertex -9.733928680419922 22.928874969482422 0.0
endloop
endfacet
facet normal 0.0 -0.0 -1.0
outer loop
vertex -24.097942352294922 22.928874969482422 0.0
vertex -4.562730312347412 28.100074768066406 0.0
vertex -9.733928680419922 22.928874969482422 0.0
endloop
endfacet
facet normal 0.0 -0.0 -1.0
outer loop
vertex -29.269140243530273 28.100074768066406 0.0
vertex -4.562730312347412 28.100074768066406 0.0
vertex -24.097942352294922 22.928874969482422 0.0
endloop
endfacet
facet normal 0.0 -0.0 1.0
outer loop
vertex -9.733928680419922 8.564861297607422 24.706411361694336
vertex -4.562730312347412 28.100074768066406 24.706411361694336
vertex -9.733928680419922 22.928874969482422 24.706411361694336
endloop
endfacet
facet normal 0.0 -0.0 1.0
outer loop
vertex -4.562730312347412 3.393663167953491 24.706411361694336
vertex -4.562730312347412 28.100074768066406 24.706411361694336
vertex -9.733928680419922 8.564861297607422 24.706411361694336
endloop
endfacet
facet normal 2.4733430881252534e-16 2.4733430881252534e-16 1.0
outer loop
vertex -24.097942352294922 8.564861297607422 24.706411361694336
vertex -4.562730312347412 3.393663167953491 24.706411361694336
vertex -9.733928680419922 8.564861297607422 24.706411361694336
endloop
endfacet
facet normal 0.0 -6.870194237928984e-16 1.0
outer loop
vertex -29.269140243530273 3.393663167953491 24.706411361694336
vertex -4.562730312347412 3.393663167953491 24.706411361694336
vertex -24.097942352294922 8.564861297607422 24.706411361694336
endloop
endfacet
facet normal -1.1816880414179491e-15 4.946686176250507e-16 1.0
outer loop
vertex -24.097942352294922 22.928874969482422 24.706411361694336
vertex -29.269140243530273 3.393663167953491 24.706411361694336
vertex -24.097942352294922 8.564861297607422 24.706411361694336
endloop
endfacet
facet normal 6.870194237928984e-16 0.0 1.0
outer loop
vertex -29.269140243530273 28.100074768066406 24.706411361694336
vertex -29.269140243530273 3.393663167953491 24.706411361694336
vertex -24.097942352294922 22.928874969482422 24.706411361694336
endloop
endfacet
facet normal -2.4733430881252534e-16 -9.34353785544983e-16 1.0
outer loop
vertex -9.733928680419922 22.928874969482422 24.706411361694336
vertex -29.269140243530273 28.100074768066406 24.706411361694336
vertex -24.097942352294922 22.928874969482422 24.706411361694336
endloop
endfacet
endsolid test2.stl
